# Blender v2.78 (sub 0) OBJ File: ''
# www.blender.org
mtllib cone.mtl
o Cone.001
v 0.000000 -0.267510 -1.000000
v 0.000000 1.732490 0.000000
v 0.195090 -0.267510 -0.980785
v 0.382683 -0.267510 -0.923880
v 0.555570 -0.267510 -0.831470
v 0.707107 -0.267510 -0.707107
v 0.831470 -0.267510 -0.555570
v 0.923880 -0.267510 -0.382683
v 0.980785 -0.267510 -0.195090
v 1.000000 -0.267510 -0.000000
v 0.980785 -0.267510 0.195090
v 0.923880 -0.267510 0.382683
v 0.831470 -0.267510 0.555570
v 0.707107 -0.267510 0.707107
v 0.555570 -0.267510 0.831470
v 0.382683 -0.267510 0.923880
v 0.195090 -0.267510 0.980785
v 0.000000 -0.267510 1.000000
vt 0.0001 0.1669
vt 0.9859 0.0001
vt 0.0185 0.2526
vt 0.0443 0.3364
vt 0.0774 0.4176
vt 0.1175 0.4955
vt 0.1642 0.5697
vt 0.2172 0.6395
vt 0.2762 0.7043
vt 0.3406 0.7638
vt 0.4100 0.8174
vt 0.4837 0.8647
vt 0.5614 0.9053
vt 0.6423 0.9390
vt 0.7259 0.9655
vt 0.8114 0.9846
vt 0.8983 0.9961
vt 0.9859 0.9999
vn 0.0878 0.4455 -0.8910
vn 0.2599 0.4455 -0.8567
vn 0.4220 0.4455 -0.7896
vn 0.5680 0.4455 -0.6921
vn 0.6921 0.4455 -0.5680
vn 0.7896 0.4455 -0.4220
vn 0.8567 0.4455 -0.2599
vn 0.8910 0.4455 -0.0878
vn 0.8910 0.4455 0.0878
vn 0.8567 0.4455 0.2599
vn 0.7896 0.4455 0.4220
vn 0.6921 0.4455 0.5680
vn 0.5680 0.4455 0.6921
vn 0.4220 0.4455 0.7896
vn 0.2599 0.4455 0.8567
vn 0.0878 0.4455 0.8910
usemtl Material.001
s 1
f 1/1/1 2/2/1 3/3/1
f 3/3/2 2/2/2 4/4/2
f 4/4/3 2/2/3 5/5/3
f 5/5/4 2/2/4 6/6/4
f 6/6/5 2/2/5 7/7/5
f 7/7/6 2/2/6 8/8/6
f 8/8/7 2/2/7 9/9/7
f 9/9/8 2/2/8 10/10/8
f 10/10/9 2/2/9 11/11/9
f 11/11/10 2/2/10 12/12/10
f 12/12/11 2/2/11 13/13/11
f 13/13/12 2/2/12 14/14/12
f 14/14/13 2/2/13 15/15/13
f 15/15/14 2/2/14 16/16/14
f 16/16/15 2/2/15 17/17/15
f 17/17/16 2/2/16 18/18/16
o Cone
v 0.000000 -0.267510 1.000000
v 0.000000 1.732490 0.000000
v -0.195091 -0.267510 0.980785
v -0.382684 -0.267510 0.923879
v -0.555571 -0.267510 0.831469
v -0.707107 -0.267510 0.707106
v -0.831470 -0.267510 0.555570
v -0.923880 -0.267510 0.382683
v -0.980785 -0.267510 0.195089
v -1.000000 -0.267510 -0.000001
v -0.980785 -0.267510 -0.195091
v -0.923879 -0.267510 -0.382684
v -0.831469 -0.267510 -0.555571
v -0.707106 -0.267510 -0.707108
v -0.555569 -0.267510 -0.831470
v -0.382682 -0.267510 -0.923880
v -0.195089 -0.267510 -0.980786
v 0.000000 -0.267510 -1.000000
v 0.195090 -0.267510 0.980785
v 0.980785 -0.267510 -0.195090
v 0.195090 -0.267510 -0.980785
v 0.382683 -0.267510 -0.923880
v 0.555570 -0.267510 -0.831470
v 0.707107 -0.267510 -0.707107
v 0.831470 -0.267510 -0.555570
v 0.923880 -0.267510 -0.382683
v 1.000000 -0.267510 -0.000000
v 0.980785 -0.267510 0.195090
v 0.923880 -0.267510 0.382683
v 0.831470 -0.267510 0.555570
v 0.707107 -0.267510 0.707107
v 0.555570 -0.267510 0.831470
v 0.382683 -0.267510 0.923880
vt 0.7413 0.0001
vt 0.9999 0.9832
vt 0.6562 0.0265
vt 0.6000 0.1102
vt 0.5395 0.1704
vt 0.4835 0.2214
vt 0.4192 0.2596
vt 0.3412 0.2907
vt 0.2428 0.3087
vt 0.2469 0.4191
vt 0.2328 0.5070
vt 0.2253 0.5802
vt 0.2050 0.6451
vt 0.1810 0.7084
vt 0.1444 0.7698
vt 0.0887 0.8320
vt 0.0039 0.8956
vt 0.0001 0.9832
vt 0.3151 0.6062
vt 0.3474 0.2867
vt 0.9999 0.2621
vt 0.3959 0.0821
vt 0.4459 0.0370
vt 0.5097 0.0001
vt 0.6078 0.0001
vt 0.7040 0.0192
vt 0.7946 0.0567
vt 0.8761 0.1112
vt 0.9454 0.1806
vt 0.9568 0.3592
vt 0.8956 0.4460
vt 0.8186 0.5192
vt 0.7288 0.5760
vt 0.6296 0.6142
vt 0.5249 0.6323
vt 0.4187 0.6296
vt 0.2911 0.5290
vt 0.2847 0.4593
vn -0.0878 0.4455 0.8910
vn -0.2599 0.4455 0.8567
vn -0.4220 0.4455 0.7896
vn -0.5680 0.4455 0.6921
vn -0.6921 0.4455 0.5680
vn -0.7896 0.4455 0.4220
vn -0.8567 0.4455 0.2599
vn -0.8910 0.4455 0.0878
vn -0.8910 0.4455 -0.0878
vn -0.8567 0.4455 -0.2599
vn -0.7896 0.4455 -0.4220
vn -0.6921 0.4455 -0.5680
vn -0.5680 0.4455 -0.6921
vn -0.4220 0.4455 -0.7896
vn -0.2599 0.4455 -0.8567
vn -0.0878 0.4455 -0.8910
vn -0.0000 -1.0000 -0.0000
usemtl Material.002
s 1
f 19/19/17 20/20/17 21/21/17
f 21/21/18 20/20/18 22/22/18
f 22/22/19 20/20/19 23/23/19
f 23/23/20 20/20/20 24/24/20
f 24/24/21 20/20/21 25/25/21
f 25/25/22 20/20/22 26/26/22
f 26/26/23 20/20/23 27/27/23
f 27/27/24 20/20/24 28/28/24
f 28/28/25 20/20/25 29/29/25
f 29/29/26 20/20/26 30/30/26
f 30/30/27 20/20/27 31/31/27
f 31/31/28 20/20/28 32/32/28
f 32/32/29 20/20/29 33/33/29
f 33/33/30 20/20/30 34/34/30
f 34/34/31 20/20/31 35/35/31
f 35/35/32 20/20/32 36/36/32
f 37/37/33 27/38/33 38/39/33
f 35/40/33 36/41/33 39/42/33
f 39/42/33 40/43/33 41/44/33
f 41/44/33 42/45/33 43/46/33
f 43/46/33 44/47/33 41/44/33
f 38/39/33 45/48/33 46/49/33
f 46/49/33 47/50/33 38/39/33
f 48/51/33 49/52/33 37/37/33
f 50/53/33 51/54/33 37/37/33
f 37/37/33 19/55/33 21/56/33
f 21/21/33 22/22/33 23/23/33
f 23/23/33 24/24/33 25/25/33
f 25/25/33 26/26/33 27/27/33
f 27/27/33 28/28/33 29/29/33
f 29/29/33 30/30/33 31/31/33
f 31/31/33 32/32/33 35/35/33
f 33/33/33 34/34/33 35/35/33
f 35/40/33 39/42/33 38/39/33
f 41/44/33 44/47/33 38/39/33
f 38/39/33 47/50/33 48/51/33
f 49/52/33 50/53/33 37/37/33
f 37/37/33 21/56/33 27/38/33
f 23/23/33 25/25/33 27/27/33
f 27/27/33 29/29/33 35/35/33
f 32/32/33 33/33/33 35/35/33
f 39/42/33 41/44/33 38/39/33
f 38/39/33 48/51/33 37/37/33
f 21/21/33 23/23/33 27/27/33
f 29/29/33 31/31/33 35/35/33
f 35/40/33 38/39/33 27/38/33
